<svg xmlns="http://www.w3.org/2000/svg" width="61" height="61" viewBox="0 0 61 61" fill="none"><path d="M54.2759 23.938C53.8631 23.3172 53.3031 22.8083 52.6458 22.4565C51.9885 22.1047 51.2544 21.9211 50.509 21.9219H43.8438V16.2031C43.8438 15.9503 43.7433 15.7079 43.5646 15.5292C43.3858 15.3504 43.1434 15.25 42.8906 15.25H2.85938C2.60659 15.25 2.36416 15.3504 2.18541 15.5292C2.00667 15.7079 1.90625 15.9503 1.90625 16.2031V40.0098C1.90625 40.0277 1.90792 40.0455 1.90887 40.0627C1.91454 40.2579 1.98018 40.4466 2.09688 40.6031L4.95625 44.4156C5.04503 44.534 5.16015 44.6301 5.2925 44.6963C5.42485 44.7624 5.57078 44.7969 5.71875 44.7969H11.8366C12.2073 45.6467 12.8178 46.3699 13.5934 46.8778C14.369 47.3857 15.276 47.6562 16.2031 47.6562C17.1302 47.6562 18.0372 47.3857 18.8128 46.8778C19.5884 46.3699 20.199 45.6467 20.5696 44.7969H46.1491C46.5198 45.6467 47.1303 46.3699 47.9059 46.8778C48.6815 47.3857 49.5885 47.6562 50.5156 47.6562C51.4427 47.6562 52.3497 47.3857 53.1253 46.8778C53.9009 46.3699 54.5115 45.6467 54.8821 44.7969H58.1406C58.3934 44.7969 58.6358 44.6965 58.8146 44.5177C58.9933 44.339 59.0938 44.0965 59.0938 43.8438V34.6997C59.096 32.3943 58.4135 30.1402 57.1328 28.2232L54.2759 23.938ZM52.6899 24.9957L55.5467 29.281C55.8062 29.6703 56.0375 30.0777 56.2389 30.5H51.0764L47.3703 23.8281H50.5094C50.941 23.8278 51.3659 23.9342 51.7464 24.1379C52.1269 24.3416 52.451 24.6363 52.6899 24.9957ZM45.1892 23.8281L49.6825 31.916C49.765 32.0646 49.8858 32.1884 50.0323 32.2746C50.1788 32.3608 50.3457 32.4062 50.5156 32.4063H56.9142C57.0956 33.1573 57.1873 33.9271 57.1875 34.6997V39.0781H53.3719C52.5482 38.4594 51.5459 38.1249 50.5157 38.1249C49.4856 38.1249 48.4833 38.4594 47.6596 39.0781H43.8438V23.8281H45.1892ZM41.9375 17.1563V39.0781H19.0592C18.2355 38.4594 17.2332 38.1249 16.203 38.1249C15.1728 38.1249 14.1705 38.4594 13.3468 39.0781H3.8125V17.1563H41.9375ZM6.19531 42.8906L4.76562 40.9844H11.8366C11.573 41.5853 11.4371 42.2344 11.4375 42.8906H6.19531ZM16.2031 45.75C15.6376 45.75 15.0848 45.5823 14.6145 45.2681C14.1443 44.9539 13.7778 44.5073 13.5614 43.9849C13.345 43.4624 13.2884 42.8875 13.3987 42.3328C13.509 41.7781 13.7814 41.2686 14.1812 40.8687C14.5811 40.4689 15.0906 40.1965 15.6453 40.0862C16.2 39.9759 16.7749 40.0325 17.2974 40.2489C17.8198 40.4653 18.2664 40.8318 18.5806 41.302C18.8948 41.7723 19.0625 42.3251 19.0625 42.8906C19.0616 43.6487 18.7601 44.3755 18.224 44.9115C17.688 45.4476 16.9612 45.7491 16.2031 45.75ZM20.9688 42.8906C20.9692 42.2344 20.8333 41.5853 20.5696 40.9844H46.1491C45.8855 41.5853 45.7496 42.2344 45.75 42.8906H20.9688ZM50.5156 45.75C49.9501 45.75 49.3973 45.5823 48.927 45.2681C48.4568 44.9539 48.0903 44.5073 47.8739 43.9849C47.6575 43.4624 47.6009 42.8875 47.7112 42.3328C47.8215 41.7781 48.0939 41.2686 48.4937 40.8687C48.8936 40.4689 49.4031 40.1965 49.9578 40.0862C50.5125 39.9759 51.0874 40.0325 51.6099 40.2489C52.1323 40.4653 52.5789 40.8318 52.8931 41.302C53.2073 41.7723 53.375 42.3251 53.375 42.8906C53.3741 43.6487 53.0726 44.3755 52.5365 44.9115C52.0005 45.4476 51.2737 45.7491 50.5156 45.75ZM55.2812 42.8906C55.2817 42.2344 55.1458 41.5853 54.8821 40.9844H57.1875V42.8906H55.2812Z" fill="url(#paint0_linear_75_3896)"></path><path d="M13.3438 25.7344H16.2031C16.4559 25.7344 16.6983 25.634 16.8771 25.4552C17.0558 25.2765 17.1562 25.034 17.1562 24.7812C17.1562 24.5285 17.0558 24.286 16.8771 24.1073C16.6983 23.9285 16.4559 23.8281 16.2031 23.8281H13.3438C13.091 23.8281 12.8485 23.9285 12.6698 24.1073C12.491 24.286 12.3906 24.5285 12.3906 24.7812C12.3906 25.034 12.491 25.2765 12.6698 25.4552C12.8485 25.634 13.091 25.7344 13.3438 25.7344Z" fill="url(#paint1_linear_75_3896)"></path><path d="M9.53125 29.5469H16.2031C16.4559 29.5469 16.6983 29.4465 16.8771 29.2677C17.0558 29.089 17.1562 28.8465 17.1562 28.5938C17.1562 28.341 17.0558 28.0985 16.8771 27.9198C16.6983 27.741 16.4559 27.6406 16.2031 27.6406H9.53125C9.27847 27.6406 9.03603 27.741 8.85729 27.9198C8.67854 28.0985 8.57812 28.341 8.57812 28.5938C8.57812 28.8465 8.67854 29.089 8.85729 29.2677C9.03603 29.4465 9.27847 29.5469 9.53125 29.5469Z" fill="url(#paint2_linear_75_3896)"></path><path d="M16.2031 31.4531H11.4375C11.1847 31.4531 10.9423 31.5535 10.7635 31.7323C10.5848 31.911 10.4844 32.1535 10.4844 32.4062C10.4844 32.659 10.5848 32.9015 10.7635 33.0802C10.9423 33.259 11.1847 33.3594 11.4375 33.3594H16.2031C16.4559 33.3594 16.6983 33.259 16.8771 33.0802C17.0558 32.9015 17.1562 32.659 17.1562 32.4062C17.1562 32.1535 17.0558 31.911 16.8771 31.7323C16.6983 31.5535 16.4559 31.4531 16.2031 31.4531Z" fill="url(#paint3_linear_75_3896)"></path><path d="M47.6562 36.2188H50.5156C50.7684 36.2188 51.0108 36.1183 51.1896 35.9396C51.3683 35.7608 51.4688 35.5184 51.4688 35.2656C51.4688 35.0128 51.3683 34.7704 51.1896 34.5917C51.0108 34.4129 50.7684 34.3125 50.5156 34.3125H47.6562C47.4035 34.3125 47.161 34.4129 46.9823 34.5917C46.8035 34.7704 46.7031 35.0128 46.7031 35.2656C46.7031 35.5184 46.8035 35.7608 46.9823 35.9396C47.161 36.1183 47.4035 36.2188 47.6562 36.2188Z" fill="url(#paint4_linear_75_3896)"></path><path d="M36.7381 22.0759C36.6857 22.0419 28.9284 19.1234 28.9284 19.1234C28.6944 19.0354 28.4351 19.043 28.2067 19.1447C28.2067 19.1447 19.5161 23.0149 19.4727 23.0449C19.3461 23.1326 19.2427 23.2497 19.1713 23.3861C19.0998 23.5225 19.0625 23.6742 19.0625 23.8282V33.3595C19.0625 33.5535 19.1217 33.7429 19.2322 33.9023C19.3428 34.0618 19.4993 34.1837 19.681 34.2519L27.306 37.1112C27.5348 37.1979 27.7885 37.1916 28.0128 37.0937C28.0179 37.093 28.0229 37.0917 28.0277 37.0899L36.6058 33.2774C36.7743 33.2025 36.9175 33.0804 37.018 32.9258C37.1184 32.7712 37.1719 32.5907 37.1719 32.4064V22.8751C37.1719 22.7163 37.1322 22.56 37.0564 22.4205C36.9807 22.2809 36.8712 22.1625 36.7381 22.0759ZM28.6246 21.0452L33.7039 22.9499L32.1886 23.6233L30.5521 22.8478C30.4388 22.7931 30.3158 22.7612 30.1902 22.7542C30.0646 22.7472 29.9389 22.7651 29.8202 22.8069C29.7015 22.8487 29.5923 22.9136 29.4989 22.9978C29.4054 23.0821 29.3296 23.184 29.2757 23.2977C29.2218 23.4113 29.191 23.5346 29.185 23.6602C29.179 23.7859 29.1979 23.9115 29.2406 24.0298C29.2834 24.1481 29.3492 24.2568 29.4341 24.3496C29.5191 24.4424 29.6216 24.5174 29.7357 24.5704L29.8915 24.6442L27.6102 25.6582L22.5307 23.7535L28.6246 21.0452ZM26.6875 34.8435L20.9688 32.699V25.2036L26.6875 27.3481V34.8435ZM35.2656 31.7868L28.5938 34.752V27.3071L31.4531 26.0364V27.6407C31.4531 27.8935 31.5535 28.136 31.7323 28.3147C31.911 28.4935 32.1535 28.5939 32.4062 28.5939C32.659 28.5939 32.9015 28.4935 33.0802 28.3147C33.259 28.136 33.3594 27.8935 33.3594 27.6407V25.1891L35.2656 24.3419V31.7868Z" fill="url(#paint5_linear_75_3896)"></path><path d="M22.5403 29.4863L25.082 30.4394C25.1995 30.4848 25.3248 30.5065 25.4507 30.5032C25.5767 30.4999 25.7007 30.4717 25.8157 30.4202C25.9306 30.3686 26.0342 30.2948 26.1205 30.203C26.2067 30.1111 26.2739 30.0031 26.3182 29.8852C26.3624 29.7672 26.3828 29.6417 26.3782 29.5158C26.3737 29.3899 26.3442 29.2661 26.2915 29.1517C26.2388 29.0373 26.1639 28.9344 26.0712 28.8491C25.9785 28.7638 25.8698 28.6977 25.7514 28.6547L23.2097 27.7015C23.0921 27.6558 22.9666 27.6339 22.8405 27.637C22.7144 27.6401 22.5902 27.6683 22.4751 27.7198C22.3599 27.7713 22.2561 27.8451 22.1697 27.937C22.0833 28.0289 22.016 28.137 21.9717 28.2552C21.9274 28.3733 21.907 28.499 21.9117 28.625C21.9163 28.7511 21.946 28.875 21.9989 28.9895C22.0518 29.104 22.1269 29.2069 22.2198 29.2922C22.3127 29.3774 22.4217 29.4434 22.5403 29.4863Z" fill="url(#paint6_linear_75_3896)"></path><defs><linearGradient id="paint0_linear_75_3896" x1="30.5" y1="15.25" x2="30.5" y2="47.6562" gradientUnits="userSpaceOnUse"><stop stop-color="#274060"></stop><stop offset="1" stop-color="#1B2845"></stop></linearGradient><linearGradient id="paint1_linear_75_3896" x1="12.3906" y1="23.709" x2="12.6265" y2="26.0682" gradientUnits="userSpaceOnUse"><stop stop-color="#F94327"></stop><stop offset="1" stop-color="#FF7D14"></stop></linearGradient><linearGradient id="paint2_linear_75_3896" x1="8.57813" y1="27.5215" x2="8.7101" y2="29.897" gradientUnits="userSpaceOnUse"><stop stop-color="#F94327"></stop><stop offset="1" stop-color="#FF7D14"></stop></linearGradient><linearGradient id="paint3_linear_75_3896" x1="10.4844" y1="31.334" x2="10.6537" y2="33.7047" gradientUnits="userSpaceOnUse"><stop stop-color="#F94327"></stop><stop offset="1" stop-color="#FF7D14"></stop></linearGradient><linearGradient id="paint4_linear_75_3896" x1="49.0859" y1="34.3125" x2="49.0859" y2="36.2188" gradientUnits="userSpaceOnUse"><stop stop-color="#274060"></stop><stop offset="1" stop-color="#1B2845"></stop></linearGradient><linearGradient id="paint5_linear_75_3896" x1="19.0625" y1="17.9307" x2="24.3889" y2="39.2359" gradientUnits="userSpaceOnUse"><stop stop-color="#F94327"></stop><stop offset="1" stop-color="#FF7D14"></stop></linearGradient><linearGradient id="paint6_linear_75_3896" x1="21.911" y1="27.4575" x2="22.4715" y2="30.9512" gradientUnits="userSpaceOnUse"><stop stop-color="#F94327"></stop><stop offset="1" stop-color="#FF7D14"></stop></linearGradient></defs></svg>