<svg xmlns="http://www.w3.org/2000/svg" width="61" height="61" viewBox="0 0 61 61" fill="none"><path d="M21.207 34.7891C23.7048 34.7891 26.1465 34.0484 28.2233 32.6607C30.3001 31.273 31.9188 29.3007 32.8746 26.993C33.8305 24.6854 34.0806 22.1462 33.5933 19.6964C33.106 17.2466 31.9032 14.9964 30.137 13.2302C28.3708 11.464 26.1206 10.2612 23.6708 9.77392C21.221 9.28663 18.6818 9.53672 16.3742 10.4926C14.0665 11.4484 12.0942 13.0671 10.7065 15.1439C9.3188 17.2207 8.57813 19.6624 8.57812 22.1602C8.58191 25.5084 9.91367 28.7184 12.2812 31.086C14.6488 33.4535 17.8588 34.7853 21.207 34.7891ZM21.207 11.4375C23.3278 11.4375 25.4009 12.0664 27.1642 13.2446C28.9276 14.4228 30.3019 16.0975 31.1135 18.0568C31.925 20.0161 32.1374 22.1721 31.7237 24.252C31.3099 26.332 30.2887 28.2426 28.7891 29.7422C27.2895 31.2418 25.3789 32.263 23.2989 32.6768C21.2189 33.0905 19.063 32.8782 17.1036 32.0666C15.1443 31.255 13.4697 29.8807 12.2915 28.1174C11.1132 26.354 10.4844 24.2809 10.4844 22.1602C10.4875 19.3173 11.6182 16.5918 13.6285 14.5816C15.6387 12.5714 18.3642 11.4407 21.207 11.4375Z" fill="url(#paint0_linear_75_3881)"></path><path d="M58.893 44.2118L52.2211 35.6336C52.1388 35.5281 52.0351 35.4411 51.9168 35.3783C51.7985 35.3156 51.6683 35.2785 51.5347 35.2694C51.5128 35.2668 51.4908 35.2655 51.4687 35.2656H38.1326C39.7071 31.0758 40.5117 26.636 40.5078 22.1602C40.5078 11.5177 31.8495 2.85938 21.207 2.85938C10.5646 2.85938 1.90625 11.5177 1.90625 22.1602C1.8979 29.2142 3.89409 36.1255 7.66229 42.0888C7.09622 42.2809 6.60445 42.6453 6.25592 43.1309C5.90738 43.6166 5.71955 44.1991 5.71875 44.7969V48.6094C5.71875 48.8622 5.81916 49.1046 5.99791 49.2833C6.17665 49.4621 6.41909 49.5625 6.67187 49.5625H10.4844V56.2344H2.85937C2.60659 56.2344 2.36415 56.3348 2.18541 56.5135C2.00666 56.6923 1.90625 56.9347 1.90625 57.1875C1.90625 57.4403 2.00666 57.6827 2.18541 57.8615C2.36415 58.0402 2.60659 58.1406 2.85937 58.1406H58.1406C58.3934 58.1406 58.6358 58.0402 58.8146 57.8615C58.9933 57.6827 59.0937 57.4403 59.0937 57.1875V44.7969C59.0937 44.5849 59.0231 44.3791 58.893 44.2118ZM13.3437 44.7969C13.3437 44.5441 13.4442 44.3017 13.6229 44.1229C13.8017 43.9442 14.0441 43.8438 14.2969 43.8438C14.5497 43.8438 14.7921 43.9442 14.9708 44.1229C15.1496 44.3017 15.25 44.5441 15.25 44.7969V47.6562H13.3437V44.7969ZM13.5065 49.5625L19.0625 56.1287V56.2344H12.3906V49.5625H13.5065ZM44.3307 43.8438H22.1381L28.0686 37.1719H49.52L44.3307 43.8438ZM21.207 4.76562C30.7984 4.76562 38.6016 12.5693 38.6016 22.1602C38.6056 26.6487 37.7531 31.0967 36.0897 35.2656H27.6406C27.506 35.2656 27.3729 35.2942 27.2502 35.3493C27.1274 35.4045 27.0177 35.485 26.9283 35.5856L19.3033 44.1638C19.3017 44.1654 19.3013 44.1672 19.2998 44.1689C19.1468 44.3423 19.0624 44.5656 19.0625 44.7969V53.1775L16.0037 49.5625H16.2031C16.4559 49.5625 16.6983 49.4621 16.8771 49.2833C17.0558 49.1046 17.1562 48.8622 17.1562 48.6094V44.7969C17.1554 44.0388 16.8539 43.312 16.3178 42.7759C15.7818 42.2399 15.055 41.9384 14.2969 41.9375V39.0781C14.2969 38.8253 14.1965 38.5829 14.0177 38.4042C13.839 38.2254 13.5965 38.125 13.3437 38.125H11.4375C11.1847 38.125 10.9423 38.2254 10.7635 38.4042C10.5848 38.5829 10.4844 38.8253 10.4844 39.0781C10.4844 39.3309 10.5848 39.5733 10.7635 39.7521C10.9423 39.9308 11.1847 40.0312 11.4375 40.0312H12.3906V41.9375H9.83851C5.90299 36.0933 3.80447 29.206 3.8125 22.1602C3.8125 12.5693 11.6162 4.76562 21.207 4.76562ZM7.625 47.6562V44.7969C7.62528 44.5442 7.72579 44.3019 7.90447 44.1232C8.08316 43.9445 8.32542 43.844 8.57812 43.8438H11.6014C11.4928 44.1498 11.4374 44.4721 11.4375 44.7969V47.6562H7.625ZM20.9687 45.75H43.8437V56.2344H20.9687V45.75ZM49.5625 56.2344V50.5156C49.5625 50.0101 49.7633 49.5252 50.1208 49.1677C50.4783 48.8102 50.9632 48.6094 51.4687 48.6094C51.9743 48.6094 52.4592 48.8102 52.8167 49.1677C53.1742 49.5252 53.375 50.0101 53.375 50.5156V56.2344H49.5625ZM55.2812 56.2344V50.5156C55.2812 49.5045 54.8796 48.5348 54.1646 47.8198C53.4496 47.1048 52.4799 46.7031 51.4687 46.7031C50.4576 46.7031 49.4879 47.1048 48.7729 47.8198C48.0579 48.5348 47.6562 49.5045 47.6562 50.5156V56.2344H45.75V45.1239L51.4687 37.7712L57.1875 45.1239V56.2344H55.2812Z" fill="url(#paint1_linear_75_3881)"></path><path d="M30.5 47.6562H25.7344C25.4816 47.6562 25.2392 47.7567 25.0604 47.9354C24.8817 48.1142 24.7812 48.3566 24.7812 48.6094V53.375C24.7812 53.6278 24.8817 53.8702 25.0604 54.049C25.2392 54.2277 25.4816 54.3281 25.7344 54.3281H30.5C30.7528 54.3281 30.9952 54.2277 31.174 54.049C31.3527 53.8702 31.4531 53.6278 31.4531 53.375V48.6094C31.4531 48.3566 31.3527 48.1142 31.174 47.9354C30.9952 47.7567 30.7528 47.6562 30.5 47.6562ZM29.5469 52.4219H26.6875V49.5625H29.5469V52.4219Z" fill="url(#paint2_linear_75_3881)"></path><path d="M39.0781 47.6562H34.3125C34.0597 47.6562 33.8173 47.7567 33.6385 47.9354C33.4598 48.1142 33.3594 48.3566 33.3594 48.6094V53.375C33.3594 53.6278 33.4598 53.8702 33.6385 54.049C33.8173 54.2277 34.0597 54.3281 34.3125 54.3281H39.0781C39.3309 54.3281 39.5733 54.2277 39.7521 54.049C39.9308 53.8702 40.0312 53.6278 40.0312 53.375V48.6094C40.0312 48.3566 39.9308 48.1142 39.7521 47.9354C39.5733 47.7567 39.3309 47.6562 39.0781 47.6562ZM38.125 52.4219H35.2656V49.5625H38.125V52.4219Z" fill="url(#paint3_linear_75_3881)"></path><defs><linearGradient id="paint0_linear_75_3881" x1="8.57813" y1="7.95264" x2="16.0069" y2="37.6677" gradientUnits="userSpaceOnUse"><stop stop-color="#F94327"></stop><stop offset="1" stop-color="#FF7D14"></stop></linearGradient><linearGradient id="paint1_linear_75_3881" x1="30.5" y1="2.85937" x2="30.5" y2="58.1406" gradientUnits="userSpaceOnUse"><stop stop-color="#274060"></stop><stop offset="1" stop-color="#1B2845"></stop></linearGradient><linearGradient id="paint2_linear_75_3881" x1="24.7813" y1="47.2393" x2="26.7436" y2="55.0885" gradientUnits="userSpaceOnUse"><stop stop-color="#F94327"></stop><stop offset="1" stop-color="#FF7D14"></stop></linearGradient><linearGradient id="paint3_linear_75_3881" x1="33.3594" y1="47.2393" x2="35.3217" y2="55.0885" gradientUnits="userSpaceOnUse"><stop stop-color="#F94327"></stop><stop offset="1" stop-color="#FF7D14"></stop></linearGradient></defs></svg>