<svg xmlns="http://www.w3.org/2000/svg" width="61" height="61" viewBox="0 0 61 61" fill="none"><path d="M53.5269 8.20016C53.414 7.70757 53.1104 7.27984 52.6827 7.01074C52.2549 6.74165 51.7379 6.65314 51.245 6.76463L47.0667 7.71609L45.3709 4.47654C45.136 4.02904 44.7332 3.69298 44.2509 3.5421C43.7686 3.39122 43.2461 3.43785 42.7981 3.67174L25.9012 12.5171C25.8831 12.5266 25.8661 12.5375 25.849 12.548L7.19717 16.7952H3.93164C3.42625 16.7958 2.94171 16.9968 2.58435 17.3542C2.22698 17.7115 2.02596 18.1961 2.02539 18.7014V43.2501C2.02596 43.7555 2.22698 44.2401 2.58435 44.5974C2.94171 44.9548 3.42625 45.1558 3.93164 45.1564H34.2945C34.2795 45.1745 34.2637 45.1921 34.2488 45.2098C33.3357 46.3261 32.7579 47.6784 32.5823 49.1099C32.4068 50.5414 32.6408 51.9933 33.2572 53.2971C33.8735 54.6009 34.847 55.7033 36.0646 56.4762C37.2821 57.2491 38.6939 57.661 40.1361 57.6639C40.3925 57.6639 40.6501 57.651 40.909 57.6253C42.4681 57.47 43.9414 56.8377 45.1281 55.8145C46.3148 54.7914 47.1571 53.4272 47.5403 51.908C49.0452 51.7663 50.4741 51.1805 51.6452 50.2248C52.8163 49.2691 53.6769 47.9868 54.1175 46.5409C54.558 45.095 54.5588 43.5507 54.1195 42.1043C53.6803 40.658 52.8209 39.3749 51.6507 38.4182C51.6178 38.3912 51.5837 38.3664 51.5506 38.3401V35.7825L57.5419 34.4181C57.786 34.3626 58.0168 34.2594 58.2211 34.1147C58.4253 33.9699 58.5991 33.7864 58.7324 33.5744C58.8657 33.3625 58.9559 33.1264 58.998 32.8797C59.04 32.6329 59.0331 32.3802 58.9775 32.1361L53.5269 8.20016ZM43.6821 5.36056L45.1442 8.15381L33.1119 10.894L43.6821 5.36056ZM44.5762 53.6602C43.6158 54.834 42.2284 55.5783 40.7192 55.7292C39.21 55.8801 37.7027 55.4253 36.5288 54.4649C35.3549 53.5045 34.6107 52.117 34.4598 50.6079C34.3089 49.0987 34.7636 47.5914 35.7241 46.4175C36.179 45.8603 36.7351 45.3941 37.3631 45.0433C37.3658 45.0419 37.3685 45.0402 37.3711 45.0387C38.0528 44.66 38.8049 44.425 39.581 44.3484C39.775 44.3289 39.9682 44.3193 40.1606 44.3194C41.2423 44.3216 42.3011 44.6305 43.2143 45.2102C44.1275 45.7899 44.8576 46.6167 45.3198 47.5945C45.7821 48.5724 45.9576 49.6613 45.8259 50.7349C45.6943 51.8085 45.2611 52.8229 44.5762 53.6602ZM18.041 30.9758C18.041 29.2458 18.554 27.5546 19.5151 26.1162C20.4763 24.6777 21.8424 23.5566 23.4407 22.8945C25.0391 22.2325 26.7978 22.0593 28.4946 22.3968C30.1913 22.7343 31.7499 23.5674 32.9732 24.7907C34.1965 26.014 35.0296 27.5726 35.3671 29.2694C35.7046 30.9662 35.5313 32.7249 34.8693 34.3232C34.2072 35.9216 33.086 37.2876 31.6476 38.2488C30.2091 39.2099 28.5179 39.7229 26.7879 39.7229C24.4689 39.7202 22.2456 38.7978 20.6058 37.158C18.966 35.5182 18.0436 33.2948 18.041 30.9758ZM20.7141 39.7229H9.97636C9.80985 39.1216 9.49046 38.5737 9.04928 38.1325C8.60811 37.6913 8.0602 37.3719 7.45892 37.2054V24.7462C8.0602 24.5797 8.60811 24.2603 9.04928 23.8191C9.49046 23.3779 9.80985 22.83 9.97636 22.2287H20.7141C19.3011 23.2084 18.1464 24.5158 17.3488 26.0391C16.5513 27.5625 16.1348 29.2563 16.1348 30.9758C16.1348 32.6953 16.5513 34.3891 17.3488 35.9124C18.1464 37.4358 19.3011 38.7432 20.7141 39.7229ZM37.4413 30.9758C37.4408 29.2564 37.0241 27.5627 36.2266 26.0394C35.4291 24.5161 34.2745 23.2087 32.8617 22.2287H43.5996C43.7661 22.83 44.0855 23.3779 44.5267 23.8191C44.9678 24.2602 45.5157 24.5796 46.117 24.7462V36.7284C46.0991 36.7299 46.0812 36.7305 46.0636 36.7323C45.0665 36.8293 44.0986 37.1231 43.2159 37.5967C42.3331 38.0702 41.5531 38.7142 40.9209 39.4912C40.8586 39.5673 40.7984 39.6447 40.7393 39.7229H32.8617C34.2745 38.7429 35.4291 37.4354 36.2266 35.9122C37.0241 34.3889 37.4408 32.6952 37.4413 30.9758ZM51.2483 47.9414C50.3726 49.0141 49.1363 49.7314 47.7704 49.9593C47.7603 48.8435 47.5049 47.7437 47.0225 46.7376C46.54 45.7314 45.8422 44.8437 44.9786 44.1373C44.9626 44.1242 44.9459 44.1122 44.9298 44.0993C44.9693 43.7595 45.0996 43.4367 45.3068 43.1647C45.514 42.8926 45.7907 42.6814 46.1077 42.5531C46.4247 42.4248 46.7704 42.3841 47.1085 42.4354C47.4466 42.4867 47.7647 42.6281 48.0294 42.8447C48.1262 42.9245 48.2378 42.9845 48.3578 43.0211C48.4779 43.0577 48.6039 43.0702 48.7288 43.058C48.8537 43.0457 48.9749 43.009 49.0856 42.9498C49.1962 42.8905 49.294 42.8101 49.3735 42.713C49.453 42.6159 49.5125 42.504 49.5486 42.3838C49.5847 42.2637 49.5968 42.1376 49.5841 42.0127C49.5713 41.8879 49.5341 41.7668 49.4744 41.6564C49.4148 41.546 49.334 41.4485 49.2365 41.3694C48.7624 40.981 48.2016 40.7128 47.6017 40.5874C47.0018 40.462 46.3805 40.4831 45.7905 40.649C45.2005 40.8149 44.6592 41.1207 44.2126 41.5404C43.766 41.9601 43.4272 42.4813 43.2249 43.0599C42.6414 42.8016 42.0275 42.6185 41.3978 42.5152C41.6625 41.7193 42.0991 40.9915 42.6766 40.3832C43.2541 39.7749 43.9583 39.3012 44.7393 38.9955C45.5203 38.6898 46.3591 38.5596 47.196 38.6143C48.0329 38.669 48.8476 38.9071 49.5822 39.3118C50.3169 39.7164 50.9535 40.2778 51.4469 40.956C51.9404 41.6342 52.2786 42.4126 52.4376 43.2361C52.5966 44.0597 52.5725 44.9081 52.367 45.7212C52.1614 46.5344 51.7795 47.2924 51.2483 47.9414ZM48.0232 36.7885V23.9214C48.0232 23.6686 47.9228 23.4261 47.744 23.2474C47.5653 23.0687 47.3229 22.9682 47.0701 22.9682C46.6215 22.9676 46.1915 22.789 45.8743 22.4718C45.5572 22.1545 45.3788 21.7244 45.3783 21.2758C45.3783 21.0231 45.2779 20.7806 45.0991 20.6019C44.9204 20.4231 44.6779 20.3227 44.4252 20.3227H9.15131C8.89853 20.3227 8.6561 20.4231 8.47735 20.6019C8.2986 20.7806 8.19819 21.0231 8.19819 21.2758C8.19768 21.7245 8.01921 22.1547 7.70194 22.472C7.38466 22.7893 6.95449 22.9677 6.50579 22.9682C6.25301 22.9682 6.01058 23.0687 5.83183 23.2474C5.65309 23.4261 5.55267 23.6686 5.55267 23.9214V38.0305C5.55267 38.2833 5.65309 38.5257 5.83183 38.7044C6.01058 38.8832 6.25301 38.9836 6.50579 38.9836C6.95439 38.9841 7.38447 39.1625 7.70173 39.4796C8.01899 39.7968 8.19752 40.2268 8.19819 40.6754C8.19819 40.9282 8.2986 41.1706 8.47735 41.3493C8.6561 41.5281 8.89853 41.6285 9.15131 41.6285H39.6871C39.5856 41.8964 39.4994 42.1698 39.4289 42.4475C39.4162 42.4486 39.4035 42.449 39.3909 42.4502C38.4425 42.5443 37.5202 42.8154 36.6717 43.2495H3.93164V18.7014H49.6444V37.2335C49.1223 37.025 48.5785 36.8761 48.0232 36.7885ZM51.5506 23.9939L52.3369 27.4482C52.0499 27.6019 51.7853 27.7943 51.5506 28.02V23.9939ZM49.6444 16.7958H31.6695L46.5563 13.4056C46.8521 13.9554 47.2853 14.4192 47.8137 14.7515C48.3421 15.0839 48.9477 15.2736 49.5713 15.3021L49.9168 16.8175C49.8267 16.8035 49.7356 16.7967 49.6444 16.7958ZM51.5506 33.8279V32.1648L51.6697 32.1378C51.9162 32.0816 52.1303 31.9299 52.2648 31.7159C52.3994 31.5019 52.4435 31.2432 52.3873 30.9968C52.338 30.7801 52.3318 30.5558 52.3692 30.3367C52.4065 30.1176 52.4867 29.908 52.6051 29.7199C52.7235 29.5319 52.8778 29.3689 53.0591 29.2405C53.2405 29.1121 53.4454 29.0206 53.6621 28.9714C53.7842 28.9436 53.8996 28.892 54.0017 28.8196C54.1038 28.7473 54.1907 28.6555 54.2573 28.5495C54.324 28.4436 54.3691 28.3255 54.3901 28.2021C54.4111 28.0787 54.4076 27.9524 54.3798 27.8304L51.2472 14.0732C51.191 13.8267 51.0392 13.6127 50.8253 13.4781C50.6113 13.3435 50.3526 13.2995 50.1061 13.3556C49.6685 13.4551 49.2093 13.3766 48.8295 13.1376C48.4497 12.8985 48.1804 12.5184 48.0807 12.0808C48.0246 11.8343 47.8729 11.6203 47.6589 11.4857C47.445 11.3511 47.1863 11.307 46.9399 11.3631L23.0848 16.7959H15.7823L51.6682 8.62346L57.1188 32.5588L51.5506 33.8279Z" fill="url(#paint0_linear_74_3805)"></path><path d="M29.0242 26.03C28.6325 25.7692 28.1983 25.579 27.741 25.4678V24.8027C27.741 24.5499 27.6406 24.3075 27.4619 24.1288C27.2831 23.95 27.0407 23.8496 26.7879 23.8496C26.5351 23.8496 26.2927 23.95 26.114 24.1288C25.9352 24.3075 25.8348 24.5499 25.8348 24.8027V25.4678C25.3776 25.579 24.9434 25.7692 24.5518 26.0299C24.0752 26.3476 23.6974 26.7927 23.4614 27.3146C23.2253 27.8364 23.1405 28.414 23.2165 28.9817C23.2925 29.5494 23.5263 30.0843 23.8914 30.5257C24.2564 30.967 24.738 31.297 25.2814 31.4782L27.6918 32.2817C27.8966 32.3499 28.0781 32.4743 28.2157 32.6407C28.3533 32.807 28.4414 33.0087 28.4701 33.2226C28.4987 33.4366 28.4667 33.6543 28.3777 33.851C28.2887 34.0477 28.1463 34.2154 27.9667 34.3352C27.6179 34.5687 27.2076 34.6934 26.7879 34.6934C26.3681 34.6934 25.9578 34.5687 25.609 34.3352C25.4509 34.23 25.3213 34.0874 25.2318 33.92C25.1422 33.7527 25.0954 33.5657 25.0956 33.3759V32.7389C25.0956 32.4861 24.9952 32.2437 24.8165 32.065C24.6377 31.8862 24.3953 31.7858 24.1425 31.7858C23.8897 31.7858 23.6473 31.8862 23.4686 32.065C23.2898 32.2437 23.1894 32.4861 23.1894 32.7389V33.3754C23.1889 33.8791 23.313 34.3752 23.5506 34.8193C23.7883 35.2635 24.1322 35.6419 24.5516 35.9209C24.9433 36.1817 25.3776 36.372 25.8348 36.4832V37.1482C25.8348 37.401 25.9352 37.6434 26.114 37.8222C26.2927 38.0009 26.5351 38.1013 26.7879 38.1013C27.0407 38.1013 27.2831 38.0009 27.4619 37.8222C27.6406 37.6434 27.741 37.401 27.741 37.1482V36.483C28.1982 36.3719 28.6324 36.1817 29.0241 35.9211C29.5007 35.6034 29.8785 35.1583 30.1146 34.6364C30.3507 34.1146 30.4356 33.537 30.3595 32.9693C30.2835 32.4016 30.0497 31.8666 29.6846 31.4252C29.3196 30.9839 28.8379 30.6539 28.2946 30.4728L25.8841 29.6693C25.6793 29.601 25.4978 29.4766 25.3602 29.3103C25.2226 29.1439 25.1344 28.9423 25.1058 28.7283C25.0771 28.5144 25.1091 28.2966 25.1981 28.1C25.2871 27.9033 25.4295 27.7355 25.6091 27.6158C25.9579 27.3823 26.3682 27.2576 26.788 27.2576C27.2077 27.2576 27.618 27.3823 27.9668 27.6158C28.1249 27.7209 28.2546 27.8635 28.3442 28.0309C28.4337 28.1983 28.4805 28.3852 28.4803 28.5751V29.2124C28.4803 29.4652 28.5807 29.7076 28.7595 29.8863C28.9382 30.0651 29.1807 30.1655 29.4334 30.1655C29.6862 30.1655 29.9286 30.0651 30.1074 29.8863C30.2861 29.7076 30.3866 29.4652 30.3866 29.2124V28.5759C30.3872 28.0721 30.2631 27.5759 30.0254 27.1317C29.7877 26.6875 29.4437 26.309 29.0242 26.03Z" fill="url(#paint1_linear_74_3805)"></path><path d="M12.1275 28.5898C11.6556 28.5898 11.1943 28.7298 10.8019 28.992C10.4096 29.2541 10.1037 29.6268 9.92314 30.0628C9.74255 30.4988 9.6953 30.9785 9.78736 31.4414C9.87943 31.9042 10.1067 32.3294 10.4404 32.663C10.7741 32.9967 11.1992 33.224 11.6621 33.3161C12.1249 33.4081 12.6047 33.3609 13.0406 33.1803C13.4766 32.9997 13.8493 32.6939 14.1115 32.3015C14.3736 31.9091 14.5136 31.4478 14.5136 30.9759C14.5129 30.3433 14.2612 29.7368 13.8139 29.2895C13.3666 28.8422 12.7601 28.5906 12.1275 28.5898ZM12.1275 31.4557C12.0327 31.4557 11.9399 31.4275 11.861 31.3748C11.7821 31.3221 11.7206 31.2471 11.6843 31.1595C11.648 31.0718 11.6385 30.9753 11.657 30.8823C11.6755 30.7892 11.7212 30.7037 11.7883 30.6366C11.8554 30.5695 11.9409 30.5238 12.0339 30.5053C12.127 30.4868 12.2235 30.4963 12.3112 30.5326C12.3988 30.5689 12.4738 30.6304 12.5265 30.7093C12.5792 30.7882 12.6073 30.881 12.6073 30.9759C12.6072 31.1031 12.5566 31.225 12.4666 31.315C12.3767 31.4049 12.2547 31.4555 12.1275 31.4557Z" fill="url(#paint2_linear_74_3805)"></path><path d="M41.2279 33.3619C41.6998 33.3619 42.1611 33.222 42.5535 32.9598C42.9459 32.6976 43.2517 32.325 43.4323 31.889C43.6129 31.453 43.6601 30.9732 43.5681 30.5104C43.476 30.0475 43.2488 29.6224 42.9151 29.2887C42.5814 28.955 42.1562 28.7278 41.6934 28.6357C41.2305 28.5436 40.7508 28.5909 40.3148 28.7715C39.8788 28.9521 39.5062 29.2579 39.244 29.6503C38.9818 30.0426 38.8419 30.504 38.8419 30.9759C38.8426 31.6085 39.0942 32.2149 39.5415 32.6623C39.9888 33.1096 40.5953 33.3612 41.2279 33.3619ZM41.2279 30.4961C41.3228 30.4961 41.4155 30.5242 41.4944 30.577C41.5733 30.6297 41.6348 30.7046 41.6711 30.7923C41.7075 30.8799 41.717 30.9764 41.6984 31.0695C41.6799 31.1625 41.6342 31.248 41.5671 31.3151C41.5 31.3822 41.4146 31.4279 41.3215 31.4464C41.2284 31.4649 41.132 31.4554 41.0443 31.4191C40.9566 31.3828 40.8817 31.3213 40.829 31.2424C40.7762 31.1635 40.7481 31.0708 40.7481 30.9759C40.7483 30.8487 40.7989 30.7267 40.8888 30.6368C40.9787 30.5469 41.1007 30.4963 41.2279 30.4961Z" fill="url(#paint3_linear_74_3805)"></path><path d="M42.5644 47.0874C41.7818 46.4471 40.7769 46.1439 39.7708 46.2445C38.7647 46.3451 37.8397 46.8413 37.1994 47.6239C36.5591 48.4065 36.256 49.4114 36.3566 50.4175C36.4572 51.4236 36.9534 52.3486 37.736 52.9889C37.8328 53.0687 37.9444 53.1287 38.0644 53.1653C38.1844 53.2019 38.3105 53.2144 38.4354 53.2022C38.5603 53.1899 38.6815 53.1531 38.7921 53.0939C38.9028 53.0347 39.0006 52.9543 39.0801 52.8571C39.1595 52.76 39.219 52.6482 39.2552 52.528C39.2913 52.4079 39.3034 52.2817 39.2906 52.1569C39.2779 52.0321 39.2407 51.911 39.181 51.8006C39.1214 51.6902 39.0405 51.5926 38.9431 51.5136C38.5518 51.1934 38.3037 50.731 38.2534 50.2279C38.203 49.7248 38.3546 49.2224 38.6747 48.831C38.9949 48.4397 39.4574 48.1916 39.9604 48.1413C40.4635 48.091 40.9659 48.2426 41.3573 48.5627C41.4541 48.6425 41.5657 48.7025 41.6857 48.7391C41.8057 48.7757 41.9318 48.7882 42.0567 48.776C42.1815 48.7637 42.3028 48.7269 42.4134 48.6677C42.524 48.6085 42.6219 48.5281 42.7014 48.4309C42.7808 48.3338 42.8403 48.222 42.8765 48.1018C42.9126 47.9817 42.9246 47.8555 42.9119 47.7307C42.8992 47.6059 42.8619 47.4848 42.8023 47.3744C42.7427 47.264 42.6618 47.1664 42.5644 47.0874Z" fill="url(#paint4_linear_74_3805)"></path><defs><linearGradient id="paint0_linear_74_3805" x1="30.5252" y1="3.45508" x2="30.5252" y2="57.6639" gradientUnits="userSpaceOnUse"><stop stop-color="#274060"></stop><stop offset="1" stop-color="#1B2845"></stop></linearGradient><linearGradient id="paint1_linear_74_3805" x1="23.1894" y1="22.9589" x2="30.2726" y2="37.2671" gradientUnits="userSpaceOnUse"><stop stop-color="#F94327"></stop><stop offset="1" stop-color="#FF7D14"></stop></linearGradient><linearGradient id="paint2_linear_74_3805" x1="9.74152" y1="28.2916" x2="11.1451" y2="33.9058" gradientUnits="userSpaceOnUse"><stop stop-color="#F94327"></stop><stop offset="1" stop-color="#FF7D14"></stop></linearGradient><linearGradient id="paint3_linear_74_3805" x1="38.8419" y1="28.2916" x2="40.2454" y2="33.9058" gradientUnits="userSpaceOnUse"><stop stop-color="#F94327"></stop><stop offset="1" stop-color="#FF7D14"></stop></linearGradient><linearGradient id="paint4_linear_74_3805" x1="39.6272" y1="46.2256" x2="39.6272" y2="53.2067" gradientUnits="userSpaceOnUse"><stop stop-color="#274060"></stop><stop offset="1" stop-color="#1B2845"></stop></linearGradient></defs></svg>