<svg xmlns="http://www.w3.org/2000/svg" width="61" height="61" viewBox="0 0 61 61" fill="none"><path d="M34.5249 9.89155H33.0083L32.5396 8.44911C32.3996 8.0184 32.1269 7.64305 31.7605 7.37685C31.3941 7.11066 30.9529 6.96729 30.5 6.96729C30.0471 6.96729 29.6059 7.11066 29.2395 7.37685C28.8731 7.64305 28.6004 8.0184 28.4604 8.44911L27.9917 9.89155H26.4751C26.0222 9.89156 25.581 10.0349 25.2146 10.3011C24.8482 10.5673 24.5755 10.9427 24.4356 11.3734C24.2956 11.8041 24.2956 12.268 24.4356 12.6987C24.5755 13.1295 24.8482 13.5048 25.2146 13.771L26.4417 14.6625L25.9727 16.105C25.8327 16.5357 25.8326 16.9997 25.9726 17.4304C26.1125 17.8612 26.3852 18.2366 26.7517 18.5028C27.1181 18.769 27.5594 18.9124 28.0123 18.9124C28.4652 18.9123 28.9065 18.7689 29.2729 18.5027L30.5 17.6111L31.7271 18.5028C32.0916 18.7737 32.5336 18.92 32.9877 18.92C33.4418 18.92 33.8839 18.7737 34.2483 18.5028C34.6186 18.24 34.8944 17.8648 35.0347 17.4328C35.1751 17.0009 35.1725 16.5353 35.0273 16.105L34.5586 14.6625L35.7858 13.771C36.1522 13.5048 36.4249 13.1295 36.5648 12.6987C36.7047 12.268 36.7047 11.8041 36.5648 11.3734C36.4248 10.9427 36.1521 10.5673 35.7858 10.3011C35.4194 10.0349 34.9782 9.89156 34.5253 9.89155H34.5249ZM34.6649 12.229L32.8778 13.5276C32.715 13.6459 32.5938 13.8127 32.5316 14.0042C32.4694 14.1956 32.4694 14.4018 32.5316 14.5932L33.2143 16.6942C33.2298 16.7421 33.2298 16.7936 33.2142 16.8415C33.1987 16.8893 33.1684 16.931 33.1277 16.9605C33.087 16.9901 33.038 17.0061 32.9877 17.0061C32.9374 17.0061 32.8884 16.9902 32.8477 16.9606L31.0606 15.662C30.8977 15.5437 30.7016 15.4799 30.5002 15.4799C30.2989 15.4799 30.1028 15.5437 29.9399 15.662L28.1528 16.9606C28.1121 16.9902 28.0631 17.0062 28.0127 17.0062C27.9624 17.0062 27.9134 16.9903 27.8727 16.9607C27.8319 16.9311 27.8016 16.8894 27.7861 16.8415C27.7705 16.7937 27.7705 16.7421 27.7861 16.6942L28.4688 14.5933C28.531 14.4019 28.531 14.1957 28.4688 14.0043C28.4066 13.8129 28.2854 13.646 28.1226 13.5277L26.3354 12.2291C26.2947 12.1995 26.2643 12.1578 26.2488 12.11C26.2332 12.0621 26.2332 12.0105 26.2487 11.9626C26.2643 11.9147 26.2946 11.873 26.3353 11.8434C26.376 11.8138 26.4251 11.7979 26.4754 11.7979H28.6845C28.8858 11.7979 29.0819 11.7342 29.2448 11.6159C29.4076 11.4977 29.5289 11.3308 29.5911 11.1394L30.2736 9.03814C30.2893 8.99047 30.3196 8.94896 30.3603 8.91954C30.4009 8.89011 30.4498 8.87427 30.5 8.87427C30.5502 8.87427 30.5991 8.89011 30.6397 8.91954C30.6804 8.94896 30.7107 8.99047 30.7264 9.03814L31.409 11.1392C31.4713 11.3306 31.5925 11.4974 31.7553 11.6157C31.9182 11.734 32.1143 11.7977 32.3156 11.7977H34.5247C34.575 11.7977 34.6241 11.8136 34.6648 11.8432C34.7056 11.8728 34.7359 11.9145 34.7514 11.9624C34.767 12.0103 34.7669 12.0618 34.7514 12.1097C34.7358 12.1576 34.7054 12.1993 34.6647 12.2288L34.6649 12.229Z" fill="url(#paint0_linear_75_3925)"></path><path d="M19.7751 9.59614H18.2584L17.7897 8.1537C17.6498 7.72299 17.3771 7.34764 17.0107 7.08144C16.6443 6.81525 16.203 6.67187 15.7502 6.67188C15.2973 6.67187 14.856 6.81525 14.4896 7.08144C14.1232 7.34764 13.8505 7.72299 13.7106 8.1537L13.2419 9.59614H11.7252C11.2724 9.59616 10.8312 9.73954 10.4648 10.0057C10.0984 10.2719 9.82574 10.6472 9.68579 11.0779C9.54583 11.5086 9.54581 11.9725 9.68571 12.4032C9.82561 12.8339 10.0983 13.2093 10.4646 13.4755L11.6917 14.3671L11.223 15.8099C11.0831 16.2407 11.083 16.7046 11.223 17.1354C11.3629 17.5661 11.6356 17.9415 12.0021 18.2077C12.3685 18.474 12.8098 18.6173 13.2627 18.6173C13.7156 18.6173 14.1569 18.4739 14.5232 18.2076L15.7504 17.3162L16.9775 18.2077C17.342 18.4786 17.784 18.6249 18.238 18.6249C18.6921 18.6249 19.1341 18.4786 19.4986 18.2077C19.8689 17.9449 20.1447 17.5697 20.285 17.1378C20.4254 16.7059 20.4228 16.2403 20.2777 15.8099L19.809 14.3676L21.0362 13.4761C21.4026 13.2099 21.6753 12.8345 21.8152 12.4038C21.9551 11.9731 21.9551 11.5092 21.8152 11.0785C21.6752 10.6477 21.4025 10.2724 21.0362 10.0062C20.6698 9.74001 20.2285 9.59663 19.7757 9.59662L19.7751 9.59614ZM19.9152 11.9334L18.1281 13.2321C17.9652 13.3504 17.844 13.5172 17.7818 13.7087C17.7196 13.9001 17.7196 14.1063 17.7819 14.2978L18.4645 16.3988C18.4801 16.4467 18.4801 16.4983 18.4645 16.5461C18.449 16.594 18.4187 16.6357 18.378 16.6653C18.3372 16.6948 18.2882 16.7108 18.2379 16.7108C18.1876 16.7108 18.1385 16.6948 18.0978 16.6652L16.3107 15.3666C16.1479 15.2483 15.9517 15.1845 15.7504 15.1845C15.5492 15.1845 15.353 15.2483 15.1902 15.3666L13.4031 16.6652C13.3624 16.6948 13.3133 16.7108 13.263 16.7108C13.2127 16.7108 13.1636 16.6948 13.1229 16.6653C13.0822 16.6357 13.0519 16.594 13.0364 16.5461C13.0208 16.4983 13.0208 16.4467 13.0364 16.3988L13.7189 14.2979C13.7812 14.1065 13.7812 13.9003 13.719 13.7088C13.6568 13.5174 13.5357 13.3505 13.3728 13.2322L11.5857 11.9336C11.545 11.904 11.5148 11.8623 11.4993 11.8144C11.4838 11.7666 11.4838 11.7151 11.4993 11.6672C11.5149 11.6194 11.5452 11.5777 11.5859 11.5482C11.6265 11.5186 11.6755 11.5027 11.7258 11.5026H13.935C14.1363 11.5026 14.3324 11.4389 14.4952 11.3206C14.6581 11.2023 14.7793 11.0354 14.8415 10.844L15.524 8.74297C15.5396 8.69508 15.5698 8.65334 15.6106 8.62373C15.6513 8.59413 15.7003 8.57818 15.7507 8.57818C15.801 8.57818 15.8501 8.59413 15.8908 8.62373C15.9315 8.65334 15.9618 8.69508 15.9774 8.74297L16.66 10.844C16.7222 11.0354 16.8434 11.2022 17.0063 11.3205C17.1691 11.4388 17.3652 11.5025 17.5664 11.5025H19.7757C19.826 11.5025 19.875 11.5184 19.9157 11.548C19.9565 11.5776 19.9868 11.6193 20.0023 11.6671C20.0179 11.715 20.0179 11.7665 20.0023 11.8144C19.9868 11.8623 19.9565 11.904 19.9158 11.9336L19.9152 11.9334Z" fill="url(#paint1_linear_75_3925)"></path><path d="M49.2748 9.59614H47.7581L47.2894 8.1537C47.1495 7.72299 46.8768 7.34764 46.5104 7.08144C46.144 6.81525 45.7027 6.67187 45.2498 6.67188C44.797 6.67187 44.3557 6.81525 43.9893 7.08144C43.6229 7.34764 43.3502 7.72299 43.2103 8.1537L42.7416 9.59614H41.2249C40.7721 9.59619 40.3309 9.73958 39.9645 10.0058C39.5982 10.272 39.3255 10.6473 39.1856 11.078C39.0456 11.5086 39.0456 11.9725 39.1855 12.4032C39.3254 12.8339 39.5981 13.2093 39.9644 13.4755L41.1916 14.3671L40.7223 15.8099C40.5823 16.2407 40.5823 16.7046 40.7222 17.1354C40.8621 17.5661 41.1349 17.9415 41.5013 18.2077C41.8677 18.474 42.309 18.6173 42.7619 18.6173C43.2148 18.6173 43.6561 18.4739 44.0225 18.2076L45.2496 17.3162L46.4768 18.2077C46.8412 18.4787 47.2832 18.625 47.7373 18.625C48.1914 18.625 48.6334 18.4787 48.9978 18.2077C49.3681 17.9449 49.6439 17.5697 49.7843 17.1378C49.9247 16.7059 49.9221 16.2403 49.777 15.8099L49.3083 14.3676L50.5354 13.4761C50.9018 13.2099 51.1745 12.8345 51.3144 12.4038C51.4543 11.9731 51.4543 11.5092 51.3144 11.0785C51.1745 10.6477 50.9018 10.2724 50.5354 10.0062C50.169 9.74001 49.7278 9.59663 49.2749 9.59662L49.2748 9.59614ZM49.4148 11.9334L47.6277 13.2321C47.4648 13.3504 47.3436 13.5173 47.2815 13.7087C47.2193 13.9001 47.2193 14.1064 47.2816 14.2978L47.9641 16.3988C47.9796 16.4467 47.9796 16.4982 47.9641 16.546C47.9485 16.5939 47.9182 16.6356 47.8775 16.6651C47.8368 16.6947 47.7878 16.7106 47.7375 16.7107C47.6872 16.7107 47.6382 16.6948 47.5975 16.6652L45.8104 15.3666C45.6476 15.2484 45.4516 15.1848 45.2504 15.1848C45.0493 15.1848 44.8533 15.2484 44.6905 15.3666L42.9034 16.6652C42.8627 16.6948 42.8136 16.7108 42.7633 16.7108C42.713 16.7108 42.6639 16.6948 42.6232 16.6653C42.5825 16.6357 42.5522 16.594 42.5367 16.5461C42.5211 16.4983 42.5211 16.4467 42.5367 16.3988L43.2193 14.2979C43.2816 14.1065 43.2816 13.9002 43.2194 13.7088C43.1572 13.5173 43.036 13.3505 42.8731 13.2322L41.086 11.9336C41.0453 11.904 41.0151 11.8623 40.9996 11.8144C40.9841 11.7666 40.9841 11.7151 40.9996 11.6672C41.0152 11.6194 41.0455 11.5777 41.0861 11.5482C41.1268 11.5186 41.1758 11.5027 41.2261 11.5026H43.4353C43.6366 11.5026 43.8327 11.4389 43.9955 11.3206C44.1583 11.2023 44.2795 11.0355 44.3418 10.8441L45.0244 8.74297C45.04 8.69508 45.0703 8.65334 45.111 8.62373C45.1517 8.59413 45.2008 8.57818 45.2511 8.57818C45.3014 8.57818 45.3505 8.59413 45.3912 8.62373C45.4319 8.65334 45.4622 8.69508 45.4778 8.74297L46.1603 10.844C46.2225 11.0354 46.3437 11.2023 46.5065 11.3206C46.6694 11.4389 46.8655 11.5026 47.0667 11.5026H49.276C49.3263 11.5026 49.3753 11.5186 49.416 11.5482C49.4567 11.5777 49.487 11.6195 49.5025 11.6673C49.5181 11.7152 49.5181 11.7667 49.5025 11.8146C49.487 11.8624 49.4567 11.9041 49.416 11.9337L49.4148 11.9334Z" fill="url(#paint2_linear_75_3925)"></path><path d="M50.7539 2.85938H10.2461C9.04578 2.86073 7.89502 3.33815 7.04628 4.1869C6.19753 5.03565 5.72011 6.18641 5.71875 7.38672V19.3008C5.72011 20.5011 6.19753 21.6518 7.04628 22.5006C7.89502 23.3493 9.04578 23.8268 10.2461 23.8281H27.3521L29.9713 25.5742C30.1278 25.6786 30.3118 25.7344 30.5 25.7344C30.6882 25.7344 30.8722 25.6786 31.0287 25.5742L33.6479 23.8281H50.7539C51.9542 23.8268 53.105 23.3493 53.9537 22.5006C54.8025 21.6518 55.2799 20.5011 55.2812 19.3008V7.38672C55.2799 6.18641 54.8025 5.03565 53.9537 4.1869C53.105 3.33815 51.9542 2.86073 50.7539 2.85938ZM53.375 19.3008C53.3742 19.9957 53.0978 20.6619 52.6064 21.1533C52.115 21.6447 51.4488 21.9211 50.7539 21.9219H33.3594C33.1712 21.9219 32.9872 21.9776 32.8306 22.082L30.5 23.6357L28.1694 22.082C28.0128 21.9776 27.8288 21.9219 27.6406 21.9219H10.2461C9.55118 21.9211 8.88495 21.6447 8.39357 21.1533C7.90219 20.6619 7.62579 19.9957 7.625 19.3008V7.38672C7.62579 6.6918 7.90219 6.02558 8.39357 5.5342C8.88495 5.04282 9.55118 4.76641 10.2461 4.76562H50.7539C51.4488 4.76641 52.115 5.04282 52.6064 5.5342C53.0978 6.02558 53.3742 6.6918 53.375 7.38672V19.3008Z" fill="url(#paint3_linear_75_3925)"></path><path d="M44.9659 33.7868C44.9254 33.7612 30.8698 27.8374 30.8698 27.8374C30.7527 27.7881 30.627 27.7627 30.5 27.7627C30.373 27.7627 30.2473 27.7881 30.1302 27.8374C30.1302 27.8374 16.0739 33.7615 16.0341 33.7868C15.8982 33.8727 15.7863 33.9916 15.7088 34.1325C15.6313 34.2733 15.5906 34.4314 15.5906 34.5922V51.4078C15.5906 51.5882 15.6418 51.765 15.7383 51.9175C15.8348 52.07 15.9726 52.1919 16.1357 52.2692L30.0919 58.8799C30.219 58.9403 30.3579 58.9717 30.4985 58.9717C30.6392 58.9717 30.7781 58.9403 30.9051 58.8799C30.906 58.8799 30.9071 58.8799 30.9081 58.8799L44.8643 52.2692C45.0274 52.1919 45.1652 52.07 45.2617 51.9175C45.3582 51.765 45.4094 51.5882 45.4094 51.4078V34.5922C45.4094 34.4314 45.3687 34.2733 45.2912 34.1325C45.2137 33.9916 45.1018 33.8727 44.9659 33.7868ZM30.5 29.75L42.1218 34.6434L39.0662 36.091L35.8268 34.5567C35.6992 34.4962 35.5599 34.4648 35.4187 34.4648C35.2776 34.4648 35.1382 34.4962 35.0107 34.5567L31.1735 36.3743C31.0099 36.4518 30.8717 36.5743 30.7752 36.7275C30.6787 36.8807 30.6278 37.0582 30.6285 37.2393C30.6292 37.4203 30.6815 37.5974 30.7792 37.7499C30.8769 37.9023 31.016 38.0238 31.1802 38.1L33.0207 38.9544L30.5 40.1484L18.8782 34.6434L22.9035 32.9486L26.2908 34.5207C26.4174 34.5794 26.5554 34.6096 26.695 34.6092C26.8346 34.6088 26.9724 34.5777 27.0987 34.5182L30.9066 32.7217C31.0701 32.6445 31.2083 32.5225 31.305 32.3698C31.4018 32.2171 31.4531 32.04 31.453 31.8593C31.453 31.6785 31.4015 31.5015 31.3046 31.3489C31.2077 31.1963 31.0695 31.0743 30.9059 30.9973L29.3156 30.2488L30.5 29.75ZM38.125 38.6458V41.3485L36.2188 42.3016V39.5495L38.125 38.6458ZM33.8264 37.2268L35.4187 36.4727L36.8394 37.1456L35.2615 37.893L33.8264 37.2268ZM26.9529 31.2435L28.2635 31.8606L26.6882 32.6038L25.2772 31.9485L26.9529 31.2435ZM29.5469 56.5125L17.4969 50.8047V36.0982L29.5469 41.8065V56.5125ZM43.5031 50.8047L31.4531 56.5125V41.8065L34.3125 40.4521V43.8438C34.3125 44.0063 34.354 44.166 34.4332 44.3079C34.5123 44.4498 34.6264 44.5691 34.7646 44.6545C34.9028 44.74 35.0605 44.7886 35.2228 44.7959C35.3851 44.8032 35.5466 44.7689 35.6919 44.6962L39.5044 42.79C39.6627 42.7108 39.7959 42.5892 39.8889 42.4386C39.982 42.288 40.0312 42.1145 40.0312 41.9375V37.7428L43.5031 36.0987V50.8047Z" fill="url(#paint4_linear_75_3925)"></path><path d="M39.6232 45.301L36.4689 46.7952C36.3539 46.8476 36.2505 46.9223 36.1647 47.0151C36.0788 47.1078 36.0122 47.2167 35.9689 47.3353C35.9255 47.454 35.9061 47.5802 35.9119 47.7064C35.9177 47.8326 35.9486 47.9564 36.0027 48.0706C36.0568 48.1848 36.133 48.2871 36.227 48.3716C36.321 48.4561 36.4309 48.521 36.5502 48.5626C36.6695 48.6042 36.7959 48.6216 36.9221 48.614C37.0482 48.6063 37.1716 48.5736 37.2849 48.5178L40.4392 47.0236C40.5533 46.9706 40.6557 46.8956 40.7407 46.8028C40.8256 46.7101 40.8913 46.6014 40.9341 46.4831C40.9768 46.3648 40.9957 46.2392 40.9897 46.1136C40.9837 45.988 40.9529 45.8648 40.899 45.7511C40.8452 45.6374 40.7694 45.5356 40.676 45.4513C40.5826 45.3671 40.4734 45.3022 40.3548 45.2604C40.2362 45.2185 40.1105 45.2005 39.9849 45.2075C39.8593 45.2145 39.7363 45.2462 39.6231 45.301H39.6232Z" fill="url(#paint5_linear_75_3925)"></path><path d="M21.2189 47.0233L24.3731 48.5175C24.4864 48.573 24.6097 48.6055 24.7357 48.613C24.8616 48.6205 24.9879 48.6029 25.107 48.5613C25.2262 48.5196 25.3358 48.4547 25.4297 48.3703C25.5235 48.2859 25.5997 48.1837 25.6537 48.0697C25.7078 47.9556 25.7386 47.8319 25.7445 47.7059C25.7504 47.5798 25.7311 47.4538 25.6879 47.3352C25.6447 47.2166 25.5783 47.1078 25.4927 47.0151C25.4071 46.9223 25.3039 46.8475 25.1892 46.795L22.0351 45.3007C21.9218 45.2456 21.7986 45.2134 21.6728 45.2062C21.547 45.1989 21.421 45.2167 21.3021 45.2584C21.1832 45.3002 21.0738 45.3651 20.9802 45.4494C20.8865 45.5338 20.8105 45.6358 20.7566 45.7497C20.7027 45.8636 20.6718 45.987 20.6659 46.1129C20.66 46.2388 20.6791 46.3646 20.7221 46.483C20.7651 46.6015 20.8312 46.7102 20.9165 46.803C21.0018 46.8957 21.1045 46.9706 21.2189 47.0233Z" fill="url(#paint6_linear_75_3925)"></path><defs><linearGradient id="paint0_linear_75_3925" x1="24.3306" y1="6.22024" x2="27.7484" y2="20.3335" gradientUnits="userSpaceOnUse"><stop stop-color="#F94327"></stop><stop offset="1" stop-color="#FF7D14"></stop></linearGradient><linearGradient id="paint1_linear_75_3925" x1="9.5808" y1="5.92481" x2="12.9987" y2="20.0384" gradientUnits="userSpaceOnUse"><stop stop-color="#F94327"></stop><stop offset="1" stop-color="#FF7D14"></stop></linearGradient><linearGradient id="paint2_linear_75_3925" x1="39.0806" y1="5.92481" x2="42.4987" y2="20.0384" gradientUnits="userSpaceOnUse"><stop stop-color="#F94327"></stop><stop offset="1" stop-color="#FF7D14"></stop></linearGradient><linearGradient id="paint3_linear_75_3925" x1="30.5" y1="2.85937" x2="30.5" y2="25.7344" gradientUnits="userSpaceOnUse"><stop stop-color="#274060"></stop><stop offset="1" stop-color="#1B2845"></stop></linearGradient><linearGradient id="paint4_linear_75_3925" x1="30.5" y1="27.7627" x2="30.5" y2="58.9717" gradientUnits="userSpaceOnUse"><stop stop-color="#274060"></stop><stop offset="1" stop-color="#1B2845"></stop></linearGradient><linearGradient id="paint5_linear_75_3925" x1="38.4509" y1="45.2061" x2="38.4509" y2="48.6157" gradientUnits="userSpaceOnUse"><stop stop-color="#274060"></stop><stop offset="1" stop-color="#1B2845"></stop></linearGradient><linearGradient id="paint6_linear_75_3925" x1="23.2052" y1="45.2046" x2="23.2052" y2="48.6147" gradientUnits="userSpaceOnUse"><stop stop-color="#274060"></stop><stop offset="1" stop-color="#1B2845"></stop></linearGradient></defs></svg>