<svg xmlns="http://www.w3.org/2000/svg" width="61" height="61" viewBox="0 0 61 61" fill="none"><path d="M15.25 30.5H22.875C23.1278 30.5 23.3702 30.3996 23.549 30.2208C23.7277 30.0421 23.8281 29.7997 23.8281 29.5469C23.8281 29.2941 23.7277 29.0517 23.549 28.8729C23.3702 28.6942 23.1278 28.5938 22.875 28.5938H15.25C14.9972 28.5938 14.7548 28.6942 14.576 28.8729C14.3973 29.0517 14.2969 29.2941 14.2969 29.5469C14.2969 29.7997 14.3973 30.0421 14.576 30.2208C14.7548 30.3996 14.9972 30.5 15.25 30.5Z" fill="url(#paint0_linear_75_3905)"></path><path d="M18.1094 32.4062H15.25C14.9972 32.4062 14.7548 32.5067 14.576 32.6854C14.3973 32.8642 14.2969 33.1066 14.2969 33.3594C14.2969 33.6122 14.3973 33.8546 14.576 34.0333C14.7548 34.2121 14.9972 34.3125 15.25 34.3125H18.1094C18.3622 34.3125 18.6046 34.2121 18.7833 34.0333C18.9621 33.8546 19.0625 33.6122 19.0625 33.3594C19.0625 33.1066 18.9621 32.8642 18.7833 32.6854C18.6046 32.5067 18.3622 32.4062 18.1094 32.4062Z" fill="url(#paint1_linear_75_3905)"></path><path d="M22.875 34.3125C23.1278 34.3125 23.3702 34.2121 23.549 34.0333C23.7277 33.8546 23.8281 33.6122 23.8281 33.3594C23.8281 33.1066 23.7277 32.8642 23.549 32.6854C23.3702 32.5067 23.1278 32.4062 22.875 32.4062H21.9219C21.6691 32.4062 21.4267 32.5067 21.2479 32.6854C21.0692 32.8642 20.9688 33.1066 20.9688 33.3594C20.9688 33.6122 21.0692 33.8546 21.2479 34.0333C21.4267 34.2121 21.6691 34.3125 21.9219 34.3125H22.875Z" fill="url(#paint2_linear_75_3905)"></path><path d="M50.5156 33.5315V5.00391C50.5147 4.18264 50.1881 3.39527 49.6073 2.81454C49.0266 2.23382 48.2392 1.90716 47.418 1.90625H13.582C12.7608 1.90716 11.9734 2.23382 11.3927 2.81454C10.8119 3.39527 10.4853 4.18264 10.4844 5.00391V39.793C10.4853 40.6142 10.8119 41.4016 11.3927 41.9823C11.9734 42.5631 12.7608 42.8897 13.582 42.8906H21.4517L15.3215 57.7777C15.2619 57.9225 15.2388 58.0798 15.2544 58.2356C15.27 58.3914 15.3238 58.541 15.411 58.6711C15.4981 58.8012 15.616 58.9078 15.7542 58.9816C15.8923 59.0553 16.0465 59.0938 16.2031 59.0938H30.5C30.694 59.0937 30.8834 59.0345 31.0429 58.924C31.2023 58.8135 31.3242 58.6569 31.3924 58.4753L34.0618 51.3566L42.054 49.9031C43.5287 49.6319 44.8762 48.8912 45.8955 47.7915L54.5138 38.455C55.0366 37.8889 55.3378 37.1534 55.3623 36.3832C55.3868 35.613 55.1329 34.8598 54.6472 34.2616C54.1614 33.6634 53.4763 33.2603 52.7175 33.1262C51.9587 32.9921 51.177 33.136 50.5156 33.5315ZM48.6094 5.00391V7.86328C48.232 7.70556 47.827 7.62456 47.418 7.625H35.2656V3.8125H47.418C47.7338 3.81285 48.0367 3.93848 48.26 4.16184C48.4834 4.38519 48.609 4.68803 48.6094 5.00391ZM27.6406 9.53125H33.3594V14.2969H27.6406V9.53125ZM33.3594 3.8125V7.625H27.6406V3.8125H33.3594ZM13.582 3.8125H25.7344V7.625H13.582C13.173 7.62456 12.768 7.70556 12.3906 7.86328V5.00391C12.391 4.68803 12.5166 4.38519 12.74 4.16184C12.9633 3.93848 13.2662 3.81285 13.582 3.8125ZM12.3906 39.793V10.7227C12.391 10.4068 12.5166 10.1039 12.74 9.88059C12.9633 9.65723 13.2662 9.5316 13.582 9.53125H25.7344V11.4375H20.9688C20.716 11.4375 20.4735 11.5379 20.2948 11.7167C20.116 11.8954 20.0156 12.1378 20.0156 12.3906C20.0156 12.6434 20.116 12.8858 20.2948 13.0646C20.4735 13.2433 20.716 13.3438 20.9688 13.3438H25.7344V15.25C25.7344 15.5028 25.8348 15.7452 26.0135 15.924C26.1923 16.1027 26.4347 16.2031 26.6875 16.2031H34.3125C34.5653 16.2031 34.8077 16.1027 34.9865 15.924C35.1652 15.7452 35.2656 15.5028 35.2656 15.25V9.53125H47.418C47.7338 9.5316 48.0367 9.65723 48.26 9.88059C48.4834 10.1039 48.609 10.4068 48.6094 10.7227V34.8396L46.7031 36.1592V28.5938C46.7031 28.341 46.6027 28.0985 46.424 27.9198C46.2452 27.741 46.0028 27.6406 45.75 27.6406H36.2188C35.966 27.6406 35.7235 27.741 35.5448 27.9198C35.366 28.0985 35.2656 28.341 35.2656 28.5938V33.3594H31.5509C31.3566 33.3594 26.6738 35.3238 26.6738 35.3238C25.8385 35.6792 25.082 36.1967 24.448 36.8464C23.8141 37.4961 23.3152 38.2651 22.9804 39.1089L22.2297 40.9844H13.582C13.2662 40.984 12.9633 40.8584 12.74 40.635C12.5166 40.4117 12.391 40.1088 12.3906 39.793ZM44.7969 37.1719H39.9455C40.0503 36.7366 40.0592 36.2837 39.9716 35.8447C39.8839 35.4056 39.7019 34.9909 39.4381 34.6291C39.1742 34.2674 38.8349 33.9674 38.4436 33.7499C38.0523 33.5323 37.6184 33.4024 37.1719 33.3693V29.5469H44.7969V37.1719ZM37.6876 39.4551C38.0007 39.3764 38.2994 39.2492 38.5731 39.0781H42.487L39.7334 40.9844H34.7072L35.7529 39.9388L37.6876 39.4551ZM53.1129 37.1625L44.4947 46.4988C43.7566 47.2952 42.7808 47.8315 41.7129 48.028L33.1888 49.5779C33.0266 49.6074 32.8748 49.6785 32.7483 49.7842C32.6217 49.8899 32.5248 50.0266 32.4669 50.181L29.8395 57.1875H17.6263L23.7518 42.3115L23.755 42.3039L23.7563 42.3004L23.76 42.2916L24.7498 39.8168C24.9923 39.2059 25.3537 38.6491 25.8128 38.1788C26.272 37.7084 26.8198 37.3338 27.4247 37.0766L31.6488 35.2656H36.9372C37.1831 35.2656 37.423 35.3419 37.6237 35.4841C37.8245 35.6262 37.9761 35.8272 38.0577 36.0592C38.1394 36.2912 38.1469 36.5428 38.0794 36.7793C38.0119 37.0159 37.8726 37.2256 37.6808 37.3795C37.6743 37.3848 37.6676 37.3898 37.6612 37.3951C37.5319 37.4946 37.3835 37.5664 37.2253 37.6059L35.0345 38.154C34.8669 38.1957 34.7139 38.2821 34.5916 38.4041L31.7323 41.2635C31.599 41.3968 31.5082 41.5667 31.4714 41.7515C31.4346 41.9364 31.4535 42.1281 31.5256 42.3022C31.5978 42.4764 31.72 42.6253 31.8767 42.73C32.0335 42.8347 32.2177 42.8906 32.4063 42.8906H40.0313C40.2251 42.8906 40.4144 42.8315 40.5738 42.7211L51.419 35.213C51.6819 35.0295 52.0033 34.9498 52.3215 34.9892C52.6397 35.0286 52.932 35.1842 53.1423 35.4262C53.3526 35.6682 53.4659 35.9794 53.4605 36.3C53.455 36.6205 53.3312 36.9277 53.1129 37.1625Z" fill="url(#paint3_linear_75_3905)"></path><path d="M15.25 13.3438H17.1562C17.409 13.3438 17.6515 13.2433 17.8302 13.0646C18.009 12.8858 18.1094 12.6434 18.1094 12.3906C18.1094 12.1378 18.009 11.8954 17.8302 11.7167C17.6515 11.5379 17.409 11.4375 17.1562 11.4375H15.25C14.9972 11.4375 14.7548 11.5379 14.576 11.7167C14.3973 11.8954 14.2969 12.1378 14.2969 12.3906C14.2969 12.6434 14.3973 12.8858 14.576 13.0646C14.7548 13.2433 14.9972 13.3438 15.25 13.3438Z" fill="url(#paint4_linear_75_3905)"></path><defs><linearGradient id="paint0_linear_75_3905" x1="14.2969" y1="28.4746" x2="14.4157" y2="30.8515" gradientUnits="userSpaceOnUse"><stop stop-color="#F94327"></stop><stop offset="1" stop-color="#FF7D14"></stop></linearGradient><linearGradient id="paint1_linear_75_3905" x1="14.2969" y1="32.2871" x2="14.5328" y2="34.6463" gradientUnits="userSpaceOnUse"><stop stop-color="#F94327"></stop><stop offset="1" stop-color="#FF7D14"></stop></linearGradient><linearGradient id="paint2_linear_75_3905" x1="20.9688" y1="32.2871" x2="21.3552" y2="34.6055" gradientUnits="userSpaceOnUse"><stop stop-color="#F94327"></stop><stop offset="1" stop-color="#FF7D14"></stop></linearGradient><linearGradient id="paint3_linear_75_3905" x1="32.9242" y1="1.90625" x2="32.9242" y2="59.0938" gradientUnits="userSpaceOnUse"><stop stop-color="#274060"></stop><stop offset="1" stop-color="#1B2845"></stop></linearGradient><linearGradient id="paint4_linear_75_3905" x1="14.2969" y1="11.3184" x2="14.5901" y2="13.6645" gradientUnits="userSpaceOnUse"><stop stop-color="#F94327"></stop><stop offset="1" stop-color="#FF7D14"></stop></linearGradient></defs></svg>